<svg viewBox="0 0 512 512" xmlns="http://www.w3.org/2000/svg">
<defs>
<linearGradient id="cc-plate" x1="0" y1="0" x2="1" y2="1"><stop offset="0" stop-color="#F5913F"></stop><stop offset="1" stop-color="#571F04"></stop></linearGradient>
<radialGradient id="cc-glow" cx="0.32" cy="0.26" r="0.8"><stop offset="0" stop-color="#FFFFFF" stop-opacity="0.18"></stop><stop offset="1" stop-color="#FFFFFF" stop-opacity="0"></stop></radialGradient>
<radialGradient id="cc-coin" cx="0.35" cy="0.3" r="0.95"><stop offset="0" stop-color="#FFD98A"></stop><stop offset="0.55" stop-color="#F28028"></stop><stop offset="1" stop-color="#A34A0B"></stop></radialGradient>
<linearGradient id="cc-edge" x1="0" y1="0" x2="1" y2="1"><stop offset="0" stop-color="#4A2004"></stop><stop offset="1" stop-color="#2E1302"></stop></linearGradient>
<clipPath id="cc-clip"><rect width="512" height="512" rx="112"></rect></clipPath>
</defs>
<rect width="512" height="512" rx="112" fill="url(#cc-plate)"></rect>
<rect width="512" height="512" rx="112" fill="url(#cc-glow)"></rect><g transform="translate(82,-10) scale(0.68)">
<ellipse cx="268" cy="428" rx="150" ry="24" fill="#2E1302" opacity="0.4"></ellipse>
<ellipse cx="268" cy="428" rx="104" ry="15" fill="#2E1302" opacity="0.35"></ellipse>
<circle cx="264" cy="256" r="150" fill="url(#cc-edge)"></circle>
<circle cx="250" cy="242" r="150" fill="url(#cc-coin)"></circle>
<circle cx="250" cy="242" r="118" fill="none" stroke="#8A3D08" stroke-width="6" opacity="0.5"></circle>
<circle cx="247" cy="239" r="118" fill="none" stroke="#FFE2A8" stroke-width="4" opacity="0.55"></circle>
<path d="M304 186 A78 78 0 1 0 304 306" fill="none" stroke="#7A3708" stroke-width="40" opacity="0.5"></path>
<path d="M300 182 A78 78 0 1 0 300 302" fill="none" stroke="#2B368A" stroke-width="40"></path>
<path d="M294 178 A78 78 0 0 0 176 234" fill="none" stroke="#5BC2E7" stroke-width="7" opacity="0.75"></path>
<rect x="293" y="150" width="14" height="28" rx="6" fill="#2B368A"></rect>
<rect x="293" y="306" width="14" height="28" rx="6" fill="#2B368A"></rect>
<ellipse cx="185" cy="165" rx="58" ry="32" fill="#FFFFFF" opacity="0.28" transform="rotate(-32 185 165)"></ellipse>
<circle cx="160" cy="148" r="10" fill="#FFFFFF" opacity="0.5"></circle>
<path d="M100 255 A151 151 0 0 1 289 96" fill="none" stroke="#5BC2E7" stroke-width="4.5" stroke-linecap="round" opacity="0.85"></path>
<path d="M398 348 l22 -13 7 26 -24 9 z" fill="#5BC2E7"></path>
<path d="M416 390 l11 13 -11 13 -11 -13 z" fill="#5BC2E7" opacity="0.9"></path>
<path d="M356 408 l16 -6 3 17 -16 3 z" fill="#2B368A"></path>
</g><g transform="translate(118.24000000000001,330) scale(0.48)"><g fill="none" stroke="#3D1A03" stroke-width="34" stroke-linecap="square" stroke-linejoin="round" opacity="0.85"><path d="M46 18 A34 40 0 1 0 46 82" transform="translate(25,10)"></path><path d="M12 90 L12 10 L32 10 Q50 10 50 31 Q50 52 32 52 L12 52 M34 52 L50 90" transform="translate(123,10)"></path><path d="M8 10 L28 50 L48 10 M28 50 L28 90" transform="translate(221,10)"></path><path d="M12 90 L12 10 L32 10 Q50 10 50 31 Q50 52 32 52 L12 52" transform="translate(315,10)"></path><path d="M8 10 L48 10 M28 10 L28 90" transform="translate(411,10)"></path><path d="M30 10 A22 40 0 1 0 30 90 A22 40 0 1 0 30 10" transform="translate(505,10)"></path></g><g fill="none" stroke="#3D1A03" stroke-width="34" stroke-linecap="square" stroke-linejoin="round"><path d="M46 18 A34 40 0 1 0 46 82" transform="translate(17,0)"></path><path d="M12 90 L12 10 L32 10 Q50 10 50 31 Q50 52 32 52 L12 52 M34 52 L50 90" transform="translate(115,0)"></path><path d="M8 10 L28 50 L48 10 M28 50 L28 90" transform="translate(213,0)"></path><path d="M12 90 L12 10 L32 10 Q50 10 50 31 Q50 52 32 52 L12 52" transform="translate(307,0)"></path><path d="M8 10 L48 10 M28 10 L28 90" transform="translate(403,0)"></path><path d="M30 10 A22 40 0 1 0 30 90 A22 40 0 1 0 30 10" transform="translate(497,0)"></path></g><g fill="none" stroke="#FFFFFF" stroke-width="18" stroke-linecap="square" stroke-linejoin="round"><path d="M46 18 A34 40 0 1 0 46 82" transform="translate(17,0)"></path><path d="M12 90 L12 10 L32 10 Q50 10 50 31 Q50 52 32 52 L12 52 M34 52 L50 90" transform="translate(115,0)"></path><path d="M8 10 L28 50 L48 10 M28 50 L28 90" transform="translate(213,0)"></path><path d="M12 90 L12 10 L32 10 Q50 10 50 31 Q50 52 32 52 L12 52" transform="translate(307,0)"></path><path d="M8 10 L48 10 M28 10 L28 90" transform="translate(403,0)"></path><path d="M30 10 A22 40 0 1 0 30 90 A22 40 0 1 0 30 10" transform="translate(497,0)"></path></g></g><g transform="translate(139.84,392) scale(0.48)"><g fill="none" stroke="#3D1A03" stroke-width="34" stroke-linecap="square" stroke-linejoin="round" opacity="0.85"><path d="M46 18 A34 40 0 1 0 46 82" transform="translate(25,10)"></path><path d="M12 90 L12 10 L32 10 Q50 10 50 31 Q50 52 32 52 L12 52 M34 52 L50 90" transform="translate(123,10)"></path><path d="M12 10 L12 66 Q12 90 30 90 Q48 90 48 66 L48 10" transform="translate(221,10)"></path><path d="M44 20 Q14 4 14 30 Q14 50 29 52 Q45 54 45 74 Q45 98 13 82" transform="translate(319,10)"></path><path d="M12 10 L12 90 M48 10 L48 90 M12 50 L48 50" transform="translate(415,10)"></path></g><g fill="none" stroke="#3D1A03" stroke-width="34" stroke-linecap="square" stroke-linejoin="round"><path d="M46 18 A34 40 0 1 0 46 82" transform="translate(17,0)"></path><path d="M12 90 L12 10 L32 10 Q50 10 50 31 Q50 52 32 52 L12 52 M34 52 L50 90" transform="translate(115,0)"></path><path d="M12 10 L12 66 Q12 90 30 90 Q48 90 48 66 L48 10" transform="translate(213,0)"></path><path d="M44 20 Q14 4 14 30 Q14 50 29 52 Q45 54 45 74 Q45 98 13 82" transform="translate(311,0)"></path><path d="M12 10 L12 90 M48 10 L48 90 M12 50 L48 50" transform="translate(407,0)"></path></g><g fill="none" stroke="#5BC2E7" stroke-width="18" stroke-linecap="square" stroke-linejoin="round"><path d="M46 18 A34 40 0 1 0 46 82" transform="translate(17,0)"></path><path d="M12 90 L12 10 L32 10 Q50 10 50 31 Q50 52 32 52 L12 52 M34 52 L50 90" transform="translate(115,0)"></path><path d="M12 10 L12 66 Q12 90 30 90 Q48 90 48 66 L48 10" transform="translate(213,0)"></path><path d="M44 20 Q14 4 14 30 Q14 50 29 52 Q45 54 45 74 Q45 98 13 82" transform="translate(311,0)"></path><path d="M12 10 L12 90 M48 10 L48 90 M12 50 L48 50" transform="translate(407,0)"></path></g></g><g clip-path="url(#cc-clip)"><ellipse cx="256" cy="-34" rx="330" ry="118" fill="#FFFFFF" opacity="0.08"></ellipse></g>
</svg>