<?xml version="1.0" encoding="UTF-8" standalone="no"?>
<!DOCTYPE svg PUBLIC "-//W3C//DTD SVG 1.1//EN" "http://www.w3.org/Graphics/SVG/1.1/DTD/svg11.dtd">
<svg width="880" height="140" viewBox="110 190 880 140" version="1.1" xmlns="http://www.w3.org/2000/svg" xmlns:xlink="http://www.w3.org/1999/xlink" xml:space="preserve" xmlns:serif="http://www.serif.com/" style="fill-rule:evenodd;clip-rule:evenodd;stroke-linejoin:round;stroke-miterlimit:2;">
    <g transform="matrix(0.595084,0,0,0.595084,-251.050778,-1297.898175)">
        <path d="M667.766,2609.311L667.766,2660.126C667.766,2674.475 679.232,2686.191 693.393,2686.191C707.741,2686.191 719.019,2674.475 719.019,2660.126L719.019,2609.311L761.251,2563.321C764.32,2559.749 766.325,2554.673 766.325,2548.722C766.325,2534.812 754.42,2522.844 740.261,2522.844C732.929,2522.844 724.971,2527.731 718.581,2535.688L693.393,2566.203L668.643,2535.688C661.751,2527.731 654.044,2522.844 646.525,2522.844C632.615,2522.844 620.647,2534.812 620.647,2548.722C620.647,2554.673 622.402,2559.749 625.722,2563.321L667.766,2609.311ZM747.741,2624.537C747.741,2659.249 776.688,2686.442 813.405,2686.442C850.06,2686.442 878.819,2659.249 878.819,2624.286C878.819,2589.636 850.06,2562.443 813.405,2562.443C776.688,2562.443 747.741,2589.636 747.741,2624.537ZM813.405,2605.113C823.117,2605.113 830.824,2613.509 830.824,2624.975C830.824,2637.131 823.556,2645.339 813.405,2645.339C803.443,2645.339 796.175,2636.692 796.175,2624.975C796.175,2613.697 803.443,2605.113 813.405,2605.113" style="fill:rgb(5,6,8);fill-rule:nonzero;"/>
    </g>
    <g transform="matrix(0.595084,0,0,0.595084,-251.050778,-1142.196996)">
        <path d="M667.766,2609.311L667.766,2660.126C667.766,2674.475 679.232,2686.191 693.393,2686.191C707.741,2686.191 719.019,2674.475 719.019,2660.126L719.019,2609.311L761.251,2563.321C764.32,2559.749 766.325,2554.673 766.325,2548.722C766.325,2534.812 754.42,2522.844 740.261,2522.844C732.929,2522.844 724.971,2527.731 718.581,2535.688L693.393,2566.203L668.643,2535.688C661.751,2527.731 654.044,2522.844 646.525,2522.844C632.615,2522.844 620.647,2534.812 620.647,2548.722C620.647,2554.673 622.402,2559.749 625.722,2563.321L667.766,2609.311ZM747.741,2624.537C747.741,2659.249 776.688,2686.442 813.405,2686.442C850.06,2686.442 878.819,2659.249 878.819,2624.286C878.819,2589.636 850.06,2562.443 813.405,2562.443C776.688,2562.443 747.741,2589.636 747.741,2624.537ZM813.405,2605.113C823.117,2605.113 830.824,2613.509 830.824,2624.975C830.824,2637.131 823.556,2645.339 813.405,2645.339C803.443,2645.339 796.175,2636.692 796.175,2624.975C796.175,2613.697 803.443,2605.113 813.405,2605.113" style="fill:white;fill-rule:nonzero;"/>
    </g>
    <g transform="matrix(0.595084,0,0,0.595084,-251.050778,-1009.14326)">
        <path d="M667.766,2609.311L667.766,2660.126C667.766,2674.475 679.232,2686.191 693.393,2686.191C707.741,2686.191 719.019,2674.475 719.019,2660.126L719.019,2609.311L761.251,2563.321C764.32,2559.749 766.325,2554.673 766.325,2548.722C766.325,2534.812 754.42,2522.844 740.261,2522.844C732.929,2522.844 724.971,2527.731 718.581,2535.688L693.393,2566.203L668.643,2535.688C661.751,2527.731 654.044,2522.844 646.525,2522.844C632.615,2522.844 620.647,2534.812 620.647,2548.722C620.647,2554.673 622.402,2559.749 625.722,2563.321L667.766,2609.311ZM747.741,2624.537C747.741,2659.249 776.688,2686.442 813.405,2686.442C850.06,2686.442 878.819,2659.249 878.819,2624.286C878.819,2589.636 850.06,2562.443 813.405,2562.443C776.688,2562.443 747.741,2589.636 747.741,2624.537ZM813.405,2605.113C823.117,2605.113 830.824,2613.509 830.824,2624.975C830.824,2637.131 823.556,2645.339 813.405,2645.339C803.443,2645.339 796.175,2636.692 796.175,2624.975C796.175,2613.697 803.443,2605.113 813.405,2605.113" style="fill:rgb(54,190,206);fill-rule:nonzero;"/>
    </g>
    <g transform="matrix(0.595084,0,0,0.595084,-251.050778,-877.50499)">
        <path d="M667.766,2609.311L667.766,2660.126C667.766,2674.475 679.232,2686.191 693.393,2686.191C707.741,2686.191 719.019,2674.475 719.019,2660.126L719.019,2609.311L761.251,2563.321C764.32,2559.749 766.325,2554.673 766.325,2548.722C766.325,2534.812 754.42,2522.844 740.261,2522.844C732.929,2522.844 724.971,2527.731 718.581,2535.688L693.393,2566.203L668.643,2535.688C661.751,2527.731 654.044,2522.844 646.525,2522.844C632.615,2522.844 620.647,2534.812 620.647,2548.722C620.647,2554.673 622.402,2559.749 625.722,2563.321L667.766,2609.311ZM747.741,2624.537C747.741,2659.249 776.688,2686.442 813.405,2686.442C850.06,2686.442 878.819,2659.249 878.819,2624.286C878.819,2589.636 850.06,2562.443 813.405,2562.443C776.688,2562.443 747.741,2589.636 747.741,2624.537ZM813.405,2605.113C823.117,2605.113 830.824,2613.509 830.824,2624.975C830.824,2637.131 823.556,2645.339 813.405,2645.339C803.443,2645.339 796.175,2636.692 796.175,2624.975C796.175,2613.697 803.443,2605.113 813.405,2605.113" style="fill:rgb(5,6,8);fill-rule:nonzero;"/>
    </g>
    <g transform="matrix(0.595084,0,0,0.595084,-251.050778,-726.050207)">
        <path d="M667.766,2609.311L667.766,2660.126C667.766,2674.475 679.232,2686.191 693.393,2686.191C707.741,2686.191 719.019,2674.475 719.019,2660.126L719.019,2609.311L761.251,2563.321C764.32,2559.749 766.325,2554.673 766.325,2548.722C766.325,2534.812 754.42,2522.844 740.261,2522.844C732.929,2522.844 724.971,2527.731 718.581,2535.688L693.393,2566.203L668.643,2535.688C661.751,2527.731 654.044,2522.844 646.525,2522.844C632.615,2522.844 620.647,2534.812 620.647,2548.722C620.647,2554.673 622.402,2559.749 625.722,2563.321L667.766,2609.311ZM747.741,2624.537C747.741,2659.249 776.688,2686.442 813.405,2686.442C850.06,2686.442 878.819,2659.249 878.819,2624.286C878.819,2589.636 850.06,2562.443 813.405,2562.443C776.688,2562.443 747.741,2589.636 747.741,2624.537ZM813.405,2605.113C823.117,2605.113 830.824,2613.509 830.824,2624.975C830.824,2637.131 823.556,2645.339 813.405,2645.339C803.443,2645.339 796.175,2636.692 796.175,2624.975C796.175,2613.697 803.443,2605.113 813.405,2605.113" style="fill:white;fill-rule:nonzero;"/>
    </g>
    <g transform="matrix(0.595084,0,0,0.595084,-251.050778,-1298.047482)">
        <path d="M1003.06,2631.868C998.862,2636.755 997.295,2637.82 991.782,2639.575C986.268,2640.953 980.065,2642.018 974.99,2642.018C954,2642.018 938.085,2625.915 938.085,2604.424C938.085,2583.246 953.749,2567.08 974.801,2567.08C983.824,2567.08 993.348,2569.963 1004.188,2575.727C1009.263,2578.358 1012.334,2580.113 1013.649,2580.802C1016.782,2582.118 1020.103,2583.246 1023.862,2583.434L1025.178,2583.434C1037.083,2583.434 1046.607,2574.161 1046.607,2562.444C1046.607,2542.331 1012.334,2523.095 976.305,2523.095C927.056,2523.095 887.457,2559.812 887.457,2605.364C887.457,2651.981 925.052,2686.254 976.744,2686.254C1023.862,2686.254 1056.131,2656.367 1056.131,2613.071C1056.131,2595.59 1048.361,2587.193 1032.446,2587.193L989.588,2587.193C977.183,2587.193 967.032,2596.968 967.032,2609.311C967.032,2621.717 977.183,2631.868 989.588,2631.868L1003.06,2631.868ZM1150.054,2572.844C1139.903,2564.449 1134.829,2562.694 1122.422,2562.694C1090.405,2562.694 1064.527,2590.953 1064.527,2625.915C1064.527,2659.5 1089.966,2686.004 1121.545,2686.004C1135.705,2686.004 1139.903,2684.5 1150.054,2675.602C1158.262,2682.244 1165.53,2686.254 1170.167,2686.254C1183.701,2686.254 1194.729,2674.976 1194.729,2661.505L1194.729,2587.193C1194.729,2573.534 1183.889,2562.882 1170.417,2562.882C1165.781,2562.882 1158.45,2566.454 1150.054,2572.844ZM1130.191,2605.99C1140.154,2605.99 1146.983,2614.198 1146.983,2625.477C1146.983,2636.254 1139.653,2644.712 1130.191,2644.712C1121.106,2644.712 1113.588,2636.505 1113.588,2626.103C1113.588,2614.386 1120.48,2605.99 1130.191,2605.99ZM1315.407,2574.85C1303.878,2566.641 1293.727,2563.133 1282.01,2563.133C1274.491,2563.133 1262.774,2565.765 1255.506,2569.085C1254.379,2569.774 1252.875,2570.401 1250.62,2571.968C1242.913,2566.203 1236.459,2563.32 1232.26,2563.32C1218.601,2563.32 1207.511,2574.411 1207.511,2587.883L1207.511,2661.505C1207.511,2675.164 1218.601,2686.254 1231.822,2686.254C1245.356,2686.254 1256.384,2675.415 1256.384,2661.693L1256.384,2615.702C1256.384,2609.749 1261.271,2604.925 1267.662,2604.925C1273.176,2604.925 1278.063,2610 1278.063,2615.953L1278.063,2661.693C1278.063,2675.415 1288.652,2686.442 1301.935,2686.442C1315.594,2686.442 1326.873,2675.415 1326.873,2661.943L1326.873,2616.392C1326.873,2610.439 1331.51,2605.551 1337.525,2605.551C1343.477,2605.551 1348.552,2616.392 1348.552,2616.392L1348.552,2661.693C1348.552,2675.415 1359.581,2686.442 1373.303,2686.442C1386.774,2686.442 1397.864,2675.415 1397.864,2661.693L1397.864,2604.424C1397.864,2581.053 1378.189,2562.882 1352.751,2562.882C1342.6,2562.882 1334.204,2565.326 1321.798,2571.529C1320.231,2572.156 1318.289,2573.283 1315.407,2574.85ZM1460.208,2636.254L1517.853,2636.254C1532.264,2636.254 1537.965,2631.429 1537.965,2619.023C1537.965,2589.637 1507.702,2563.32 1474.118,2563.32C1436.962,2563.32 1408.453,2589.887 1408.453,2624.537C1408.453,2661.066 1437.839,2686.254 1481.198,2686.254C1501.499,2686.254 1521.612,2680.741 1530.447,2672.783C1534.457,2669.212 1537.089,2663.698 1537.089,2658.184C1537.089,2649.099 1528.692,2641.141 1518.98,2641.141C1516.099,2641.141 1512.151,2642.018 1506.574,2643.334C1497.99,2645.778 1492.226,2646.467 1485.835,2646.467C1480.76,2646.467 1476.311,2646.029 1472.363,2644.9C1467.477,2643.334 1465.033,2641.392 1460.208,2636.254ZM1474.557,2599.349C1481.637,2599.349 1486.023,2603.985 1487.15,2612.381L1460.646,2612.381C1462.84,2603.797 1467.226,2599.349 1474.557,2599.349ZM1589.031,2607.556L1548.367,2655.302C1545.735,2658.622 1544.169,2663.008 1544.169,2667.457C1544.169,2678.736 1551.249,2684.249 1565.848,2684.249L1646.049,2684.249C1657.766,2684.249 1667.478,2674.537 1667.478,2662.57C1667.478,2650.853 1657.578,2640.953 1645.611,2640.953L1616.662,2640.953L1657.578,2592.519C1660.209,2589.198 1661.964,2585.251 1661.964,2581.241C1661.964,2570.651 1654.696,2564.449 1642.289,2564.449L1565.848,2564.449C1554.131,2564.449 1544.608,2574.411 1544.608,2586.316C1544.608,2598.033 1554.131,2607.556 1566.036,2607.556L1589.031,2607.556Z" style="fill:rgb(54,190,206);fill-rule:nonzero;"/>
    </g>
    <g transform="matrix(0.595084,0,0,0.595084,-251.050778,-1142.346302)">
        <path d="M1003.06,2631.868C998.862,2636.755 997.295,2637.82 991.782,2639.575C986.268,2640.953 980.065,2642.018 974.99,2642.018C954,2642.018 938.085,2625.915 938.085,2604.424C938.085,2583.246 953.749,2567.08 974.801,2567.08C983.824,2567.08 993.348,2569.963 1004.188,2575.727C1009.263,2578.358 1012.334,2580.113 1013.649,2580.802C1016.782,2582.118 1020.103,2583.246 1023.862,2583.434L1025.178,2583.434C1037.083,2583.434 1046.607,2574.161 1046.607,2562.444C1046.607,2542.331 1012.334,2523.095 976.305,2523.095C927.056,2523.095 887.457,2559.812 887.457,2605.364C887.457,2651.981 925.052,2686.254 976.744,2686.254C1023.862,2686.254 1056.131,2656.367 1056.131,2613.071C1056.131,2595.59 1048.361,2587.193 1032.446,2587.193L989.588,2587.193C977.183,2587.193 967.032,2596.968 967.032,2609.311C967.032,2621.717 977.183,2631.868 989.588,2631.868L1003.06,2631.868ZM1150.054,2572.844C1139.903,2564.449 1134.829,2562.694 1122.422,2562.694C1090.405,2562.694 1064.527,2590.953 1064.527,2625.915C1064.527,2659.5 1089.966,2686.004 1121.545,2686.004C1135.705,2686.004 1139.903,2684.5 1150.054,2675.602C1158.262,2682.244 1165.53,2686.254 1170.167,2686.254C1183.701,2686.254 1194.729,2674.976 1194.729,2661.505L1194.729,2587.193C1194.729,2573.534 1183.889,2562.882 1170.417,2562.882C1165.781,2562.882 1158.45,2566.454 1150.054,2572.844ZM1130.191,2605.99C1140.154,2605.99 1146.983,2614.198 1146.983,2625.477C1146.983,2636.254 1139.653,2644.712 1130.191,2644.712C1121.106,2644.712 1113.588,2636.505 1113.588,2626.103C1113.588,2614.386 1120.48,2605.99 1130.191,2605.99ZM1315.407,2574.85C1303.878,2566.641 1293.727,2563.133 1282.01,2563.133C1274.491,2563.133 1262.774,2565.765 1255.506,2569.085C1254.379,2569.774 1252.875,2570.401 1250.62,2571.968C1242.913,2566.203 1236.459,2563.32 1232.26,2563.32C1218.601,2563.32 1207.511,2574.411 1207.511,2587.883L1207.511,2661.505C1207.511,2675.164 1218.601,2686.254 1231.822,2686.254C1245.356,2686.254 1256.384,2675.415 1256.384,2661.693L1256.384,2615.702C1256.384,2609.749 1261.271,2604.925 1267.662,2604.925C1273.176,2604.925 1278.063,2610 1278.063,2615.953L1278.063,2661.693C1278.063,2675.415 1288.652,2686.442 1301.935,2686.442C1315.594,2686.442 1326.873,2675.415 1326.873,2661.943L1326.873,2616.392C1326.873,2610.439 1331.51,2605.551 1337.525,2605.551C1343.477,2605.551 1348.552,2616.392 1348.552,2616.392L1348.552,2661.693C1348.552,2675.415 1359.581,2686.442 1373.303,2686.442C1386.774,2686.442 1397.864,2675.415 1397.864,2661.693L1397.864,2604.424C1397.864,2581.053 1378.189,2562.882 1352.751,2562.882C1342.6,2562.882 1334.204,2565.326 1321.798,2571.529C1320.231,2572.156 1318.289,2573.283 1315.407,2574.85ZM1460.208,2636.254L1517.853,2636.254C1532.264,2636.254 1537.965,2631.429 1537.965,2619.023C1537.965,2589.637 1507.702,2563.32 1474.118,2563.32C1436.962,2563.32 1408.453,2589.887 1408.453,2624.537C1408.453,2661.066 1437.839,2686.254 1481.198,2686.254C1501.499,2686.254 1521.612,2680.741 1530.447,2672.783C1534.457,2669.212 1537.089,2663.698 1537.089,2658.184C1537.089,2649.099 1528.692,2641.141 1518.98,2641.141C1516.099,2641.141 1512.151,2642.018 1506.574,2643.334C1497.99,2645.778 1492.226,2646.467 1485.835,2646.467C1480.76,2646.467 1476.311,2646.029 1472.363,2644.9C1467.477,2643.334 1465.033,2641.392 1460.208,2636.254ZM1474.557,2599.349C1481.637,2599.349 1486.023,2603.985 1487.15,2612.381L1460.646,2612.381C1462.84,2603.797 1467.226,2599.349 1474.557,2599.349ZM1589.031,2607.556L1548.367,2655.302C1545.735,2658.622 1544.169,2663.008 1544.169,2667.457C1544.169,2678.736 1551.249,2684.249 1565.848,2684.249L1646.049,2684.249C1657.766,2684.249 1667.478,2674.537 1667.478,2662.57C1667.478,2650.853 1657.578,2640.953 1645.611,2640.953L1616.662,2640.953L1657.578,2592.519C1660.209,2589.198 1661.964,2585.251 1661.964,2581.241C1661.964,2570.651 1654.696,2564.449 1642.289,2564.449L1565.848,2564.449C1554.131,2564.449 1544.608,2574.411 1544.608,2586.316C1544.608,2598.033 1554.131,2607.556 1566.036,2607.556L1589.031,2607.556Z" style="fill:rgb(54,190,206);fill-rule:nonzero;"/>
    </g>
    <g transform="matrix(0.595084,0,0,0.595084,-251.050778,-1009.292567)">
        <path d="M1003.06,2631.868C998.862,2636.755 997.295,2637.82 991.782,2639.575C986.268,2640.953 980.065,2642.018 974.99,2642.018C954,2642.018 938.085,2625.915 938.085,2604.424C938.085,2583.246 953.749,2567.08 974.801,2567.08C983.824,2567.08 993.348,2569.963 1004.188,2575.727C1009.263,2578.358 1012.334,2580.113 1013.649,2580.802C1016.782,2582.118 1020.103,2583.246 1023.862,2583.434L1025.178,2583.434C1037.083,2583.434 1046.607,2574.161 1046.607,2562.444C1046.607,2542.331 1012.334,2523.095 976.305,2523.095C927.056,2523.095 887.457,2559.812 887.457,2605.364C887.457,2651.981 925.052,2686.254 976.744,2686.254C1023.862,2686.254 1056.131,2656.367 1056.131,2613.071C1056.131,2595.59 1048.361,2587.193 1032.446,2587.193L989.588,2587.193C977.183,2587.193 967.032,2596.968 967.032,2609.311C967.032,2621.717 977.183,2631.868 989.588,2631.868L1003.06,2631.868ZM1150.054,2572.844C1139.903,2564.449 1134.829,2562.694 1122.422,2562.694C1090.405,2562.694 1064.527,2590.953 1064.527,2625.915C1064.527,2659.5 1089.966,2686.004 1121.545,2686.004C1135.705,2686.004 1139.903,2684.5 1150.054,2675.602C1158.262,2682.244 1165.53,2686.254 1170.167,2686.254C1183.701,2686.254 1194.729,2674.976 1194.729,2661.505L1194.729,2587.193C1194.729,2573.534 1183.889,2562.882 1170.417,2562.882C1165.781,2562.882 1158.45,2566.454 1150.054,2572.844ZM1130.191,2605.99C1140.154,2605.99 1146.983,2614.198 1146.983,2625.477C1146.983,2636.254 1139.653,2644.712 1130.191,2644.712C1121.106,2644.712 1113.588,2636.505 1113.588,2626.103C1113.588,2614.386 1120.48,2605.99 1130.191,2605.99ZM1315.407,2574.85C1303.878,2566.641 1293.727,2563.133 1282.01,2563.133C1274.491,2563.133 1262.774,2565.765 1255.506,2569.085C1254.379,2569.774 1252.875,2570.401 1250.62,2571.968C1242.913,2566.203 1236.459,2563.32 1232.26,2563.32C1218.601,2563.32 1207.511,2574.411 1207.511,2587.883L1207.511,2661.505C1207.511,2675.164 1218.601,2686.254 1231.822,2686.254C1245.356,2686.254 1256.384,2675.415 1256.384,2661.693L1256.384,2615.702C1256.384,2609.749 1261.271,2604.925 1267.662,2604.925C1273.176,2604.925 1278.063,2610 1278.063,2615.953L1278.063,2661.693C1278.063,2675.415 1288.652,2686.442 1301.935,2686.442C1315.594,2686.442 1326.873,2675.415 1326.873,2661.943L1326.873,2616.392C1326.873,2610.439 1331.51,2605.551 1337.525,2605.551C1343.477,2605.551 1348.552,2616.392 1348.552,2616.392L1348.552,2661.693C1348.552,2675.415 1359.581,2686.442 1373.303,2686.442C1386.774,2686.442 1397.864,2675.415 1397.864,2661.693L1397.864,2604.424C1397.864,2581.053 1378.189,2562.882 1352.751,2562.882C1342.6,2562.882 1334.204,2565.326 1321.798,2571.529C1320.231,2572.156 1318.289,2573.283 1315.407,2574.85ZM1460.208,2636.254L1517.853,2636.254C1532.264,2636.254 1537.965,2631.429 1537.965,2619.023C1537.965,2589.637 1507.702,2563.32 1474.118,2563.32C1436.962,2563.32 1408.453,2589.887 1408.453,2624.537C1408.453,2661.066 1437.839,2686.254 1481.198,2686.254C1501.499,2686.254 1521.612,2680.741 1530.447,2672.783C1534.457,2669.212 1537.089,2663.698 1537.089,2658.184C1537.089,2649.099 1528.692,2641.141 1518.98,2641.141C1516.099,2641.141 1512.151,2642.018 1506.574,2643.334C1497.99,2645.778 1492.226,2646.467 1485.835,2646.467C1480.76,2646.467 1476.311,2646.029 1472.363,2644.9C1467.477,2643.334 1465.033,2641.392 1460.208,2636.254ZM1474.557,2599.349C1481.637,2599.349 1486.023,2603.985 1487.15,2612.381L1460.646,2612.381C1462.84,2603.797 1467.226,2599.349 1474.557,2599.349ZM1589.031,2607.556L1548.367,2655.302C1545.735,2658.622 1544.169,2663.008 1544.169,2667.457C1544.169,2678.736 1551.249,2684.249 1565.848,2684.249L1646.049,2684.249C1657.766,2684.249 1667.478,2674.537 1667.478,2662.57C1667.478,2650.853 1657.578,2640.953 1645.611,2640.953L1616.662,2640.953L1657.578,2592.519C1660.209,2589.198 1661.964,2585.251 1661.964,2581.241C1661.964,2570.651 1654.696,2564.449 1642.289,2564.449L1565.848,2564.449C1554.131,2564.449 1544.608,2574.411 1544.608,2586.316C1544.608,2598.033 1554.131,2607.556 1566.036,2607.556L1589.031,2607.556Z" style="fill:rgb(54,190,206);fill-rule:nonzero;"/>
    </g>
    <g transform="matrix(0.595084,0,0,0.595084,-251.050778,-877.654297)">
        <path d="M1003.06,2631.868C998.862,2636.755 997.295,2637.82 991.782,2639.575C986.268,2640.953 980.065,2642.018 974.99,2642.018C954,2642.018 938.085,2625.915 938.085,2604.424C938.085,2583.246 953.749,2567.08 974.801,2567.08C983.824,2567.08 993.348,2569.963 1004.188,2575.727C1009.263,2578.358 1012.334,2580.113 1013.649,2580.802C1016.782,2582.118 1020.103,2583.246 1023.862,2583.434L1025.178,2583.434C1037.083,2583.434 1046.607,2574.161 1046.607,2562.444C1046.607,2542.331 1012.334,2523.095 976.305,2523.095C927.056,2523.095 887.457,2559.812 887.457,2605.364C887.457,2651.981 925.052,2686.254 976.744,2686.254C1023.862,2686.254 1056.131,2656.367 1056.131,2613.071C1056.131,2595.59 1048.361,2587.193 1032.446,2587.193L989.588,2587.193C977.183,2587.193 967.032,2596.968 967.032,2609.311C967.032,2621.717 977.183,2631.868 989.588,2631.868L1003.06,2631.868ZM1150.054,2572.844C1139.903,2564.449 1134.829,2562.694 1122.422,2562.694C1090.405,2562.694 1064.527,2590.953 1064.527,2625.915C1064.527,2659.5 1089.966,2686.004 1121.545,2686.004C1135.705,2686.004 1139.903,2684.5 1150.054,2675.602C1158.262,2682.244 1165.53,2686.254 1170.167,2686.254C1183.701,2686.254 1194.729,2674.976 1194.729,2661.505L1194.729,2587.193C1194.729,2573.534 1183.889,2562.882 1170.417,2562.882C1165.781,2562.882 1158.45,2566.454 1150.054,2572.844ZM1130.191,2605.99C1140.154,2605.99 1146.983,2614.198 1146.983,2625.477C1146.983,2636.254 1139.653,2644.712 1130.191,2644.712C1121.106,2644.712 1113.588,2636.505 1113.588,2626.103C1113.588,2614.386 1120.48,2605.99 1130.191,2605.99ZM1315.407,2574.85C1303.878,2566.641 1293.727,2563.133 1282.01,2563.133C1274.491,2563.133 1262.774,2565.765 1255.506,2569.085C1254.379,2569.774 1252.875,2570.401 1250.62,2571.968C1242.913,2566.203 1236.459,2563.32 1232.26,2563.32C1218.601,2563.32 1207.511,2574.411 1207.511,2587.883L1207.511,2661.505C1207.511,2675.164 1218.601,2686.254 1231.822,2686.254C1245.356,2686.254 1256.384,2675.415 1256.384,2661.693L1256.384,2615.702C1256.384,2609.749 1261.271,2604.925 1267.662,2604.925C1273.176,2604.925 1278.063,2610 1278.063,2615.953L1278.063,2661.693C1278.063,2675.415 1288.652,2686.442 1301.935,2686.442C1315.594,2686.442 1326.873,2675.415 1326.873,2661.943L1326.873,2616.392C1326.873,2610.439 1331.51,2605.551 1337.525,2605.551C1343.477,2605.551 1348.552,2616.392 1348.552,2616.392L1348.552,2661.693C1348.552,2675.415 1359.581,2686.442 1373.303,2686.442C1386.774,2686.442 1397.864,2675.415 1397.864,2661.693L1397.864,2604.424C1397.864,2581.053 1378.189,2562.882 1352.751,2562.882C1342.6,2562.882 1334.204,2565.326 1321.798,2571.529C1320.231,2572.156 1318.289,2573.283 1315.407,2574.85ZM1460.208,2636.254L1517.853,2636.254C1532.264,2636.254 1537.965,2631.429 1537.965,2619.023C1537.965,2589.637 1507.702,2563.32 1474.118,2563.32C1436.962,2563.32 1408.453,2589.887 1408.453,2624.537C1408.453,2661.066 1437.839,2686.254 1481.198,2686.254C1501.499,2686.254 1521.612,2680.741 1530.447,2672.783C1534.457,2669.212 1537.089,2663.698 1537.089,2658.184C1537.089,2649.099 1528.692,2641.141 1518.98,2641.141C1516.099,2641.141 1512.151,2642.018 1506.574,2643.334C1497.99,2645.778 1492.226,2646.467 1485.835,2646.467C1480.76,2646.467 1476.311,2646.029 1472.363,2644.9C1467.477,2643.334 1465.033,2641.392 1460.208,2636.254ZM1474.557,2599.349C1481.637,2599.349 1486.023,2603.985 1487.15,2612.381L1460.646,2612.381C1462.84,2603.797 1467.226,2599.349 1474.557,2599.349ZM1589.031,2607.556L1548.367,2655.302C1545.735,2658.622 1544.169,2663.008 1544.169,2667.457C1544.169,2678.736 1551.249,2684.249 1565.848,2684.249L1646.049,2684.249C1657.766,2684.249 1667.478,2674.537 1667.478,2662.57C1667.478,2650.853 1657.578,2640.953 1645.611,2640.953L1616.662,2640.953L1657.578,2592.519C1660.209,2589.198 1661.964,2585.251 1661.964,2581.241C1661.964,2570.651 1654.696,2564.449 1642.289,2564.449L1565.848,2564.449C1554.131,2564.449 1544.608,2574.411 1544.608,2586.316C1544.608,2598.033 1554.131,2607.556 1566.036,2607.556L1589.031,2607.556Z" style="fill:rgb(5,6,8);fill-rule:nonzero;"/>
    </g>
    <g transform="matrix(0.595084,0,0,0.595084,-251.050778,-726.199513)">
        <path d="M1003.06,2631.868C998.862,2636.755 997.295,2637.82 991.782,2639.575C986.268,2640.953 980.065,2642.018 974.99,2642.018C954,2642.018 938.085,2625.915 938.085,2604.424C938.085,2583.246 953.749,2567.08 974.801,2567.08C983.824,2567.08 993.348,2569.963 1004.188,2575.727C1009.263,2578.358 1012.334,2580.113 1013.649,2580.802C1016.782,2582.118 1020.103,2583.246 1023.862,2583.434L1025.178,2583.434C1037.083,2583.434 1046.607,2574.161 1046.607,2562.444C1046.607,2542.331 1012.334,2523.095 976.305,2523.095C927.056,2523.095 887.457,2559.812 887.457,2605.364C887.457,2651.981 925.052,2686.254 976.744,2686.254C1023.862,2686.254 1056.131,2656.367 1056.131,2613.071C1056.131,2595.59 1048.361,2587.193 1032.446,2587.193L989.588,2587.193C977.183,2587.193 967.032,2596.968 967.032,2609.311C967.032,2621.717 977.183,2631.868 989.588,2631.868L1003.06,2631.868ZM1150.054,2572.844C1139.903,2564.449 1134.829,2562.694 1122.422,2562.694C1090.405,2562.694 1064.527,2590.953 1064.527,2625.915C1064.527,2659.5 1089.966,2686.004 1121.545,2686.004C1135.705,2686.004 1139.903,2684.5 1150.054,2675.602C1158.262,2682.244 1165.53,2686.254 1170.167,2686.254C1183.701,2686.254 1194.729,2674.976 1194.729,2661.505L1194.729,2587.193C1194.729,2573.534 1183.889,2562.882 1170.417,2562.882C1165.781,2562.882 1158.45,2566.454 1150.054,2572.844ZM1130.191,2605.99C1140.154,2605.99 1146.983,2614.198 1146.983,2625.477C1146.983,2636.254 1139.653,2644.712 1130.191,2644.712C1121.106,2644.712 1113.588,2636.505 1113.588,2626.103C1113.588,2614.386 1120.48,2605.99 1130.191,2605.99ZM1315.407,2574.85C1303.878,2566.641 1293.727,2563.133 1282.01,2563.133C1274.491,2563.133 1262.774,2565.765 1255.506,2569.085C1254.379,2569.774 1252.875,2570.401 1250.62,2571.968C1242.913,2566.203 1236.459,2563.32 1232.26,2563.32C1218.601,2563.32 1207.511,2574.411 1207.511,2587.883L1207.511,2661.505C1207.511,2675.164 1218.601,2686.254 1231.822,2686.254C1245.356,2686.254 1256.384,2675.415 1256.384,2661.693L1256.384,2615.702C1256.384,2609.749 1261.271,2604.925 1267.662,2604.925C1273.176,2604.925 1278.063,2610 1278.063,2615.953L1278.063,2661.693C1278.063,2675.415 1288.652,2686.442 1301.935,2686.442C1315.594,2686.442 1326.873,2675.415 1326.873,2661.943L1326.873,2616.392C1326.873,2610.439 1331.51,2605.551 1337.525,2605.551C1343.477,2605.551 1348.552,2616.392 1348.552,2616.392L1348.552,2661.693C1348.552,2675.415 1359.581,2686.442 1373.303,2686.442C1386.774,2686.442 1397.864,2675.415 1397.864,2661.693L1397.864,2604.424C1397.864,2581.053 1378.189,2562.882 1352.751,2562.882C1342.6,2562.882 1334.204,2565.326 1321.798,2571.529C1320.231,2572.156 1318.289,2573.283 1315.407,2574.85ZM1460.208,2636.254L1517.853,2636.254C1532.264,2636.254 1537.965,2631.429 1537.965,2619.023C1537.965,2589.637 1507.702,2563.32 1474.118,2563.32C1436.962,2563.32 1408.453,2589.887 1408.453,2624.537C1408.453,2661.066 1437.839,2686.254 1481.198,2686.254C1501.499,2686.254 1521.612,2680.741 1530.447,2672.783C1534.457,2669.212 1537.089,2663.698 1537.089,2658.184C1537.089,2649.099 1528.692,2641.141 1518.98,2641.141C1516.099,2641.141 1512.151,2642.018 1506.574,2643.334C1497.99,2645.778 1492.226,2646.467 1485.835,2646.467C1480.76,2646.467 1476.311,2646.029 1472.363,2644.9C1467.477,2643.334 1465.033,2641.392 1460.208,2636.254ZM1474.557,2599.349C1481.637,2599.349 1486.023,2603.985 1487.15,2612.381L1460.646,2612.381C1462.84,2603.797 1467.226,2599.349 1474.557,2599.349ZM1589.031,2607.556L1548.367,2655.302C1545.735,2658.622 1544.169,2663.008 1544.169,2667.457C1544.169,2678.736 1551.249,2684.249 1565.848,2684.249L1646.049,2684.249C1657.766,2684.249 1667.478,2674.537 1667.478,2662.57C1667.478,2650.853 1657.578,2640.953 1645.611,2640.953L1616.662,2640.953L1657.578,2592.519C1660.209,2589.198 1661.964,2585.251 1661.964,2581.241C1661.964,2570.651 1654.696,2564.449 1642.289,2564.449L1565.848,2564.449C1554.131,2564.449 1544.608,2574.411 1544.608,2586.316C1544.608,2598.033 1554.131,2607.556 1566.036,2607.556L1589.031,2607.556Z" style="fill:white;fill-rule:nonzero;"/>
    </g>
    <g transform="matrix(0.595084,0,0,0.595084,-251.050778,-1296.854159)">
        <path d="M1726.313,2636.066L1745.988,2636.066C1783.519,2636.066 1808.958,2613.258 1808.958,2579.047C1808.958,2546.529 1783.331,2522.844 1748.18,2522.844L1700.436,2522.844C1685.21,2522.844 1674.997,2534.122 1674.997,2550.727L1674.997,2657.683C1674.997,2672.281 1686.275,2683.998 1700.185,2683.998C1714.596,2683.998 1726.313,2672.532 1726.313,2658.121L1726.313,2636.066ZM1725.875,2567.957L1746.426,2567.957C1753.256,2567.957 1758.77,2573.471 1758.77,2579.925C1758.77,2586.754 1753.256,2591.829 1746.426,2591.829L1725.875,2591.829L1725.875,2567.957ZM1863.345,2575.476C1854.322,2566.391 1846.114,2561.315 1840.35,2561.315C1827.129,2561.315 1816.039,2572.405 1816.039,2585.627L1816.039,2659.688C1816.039,2673.159 1827.129,2683.998 1840.35,2683.998C1854.072,2683.998 1865.1,2672.532 1865.1,2658.121L1864.912,2636.692C1864.912,2623.659 1865.35,2621.215 1869.109,2617.268C1872.869,2613.697 1878.195,2610.627 1886.779,2607.744C1899.373,2603.546 1902.693,2601.792 1906.265,2595.839C1908.019,2592.519 1909.336,2588.321 1909.336,2584.31C1909.336,2571.529 1899.185,2561.754 1886.591,2561.754C1878.195,2561.754 1873.307,2564.636 1863.345,2575.476ZM1906.892,2622.782C1906.892,2657.494 1935.839,2684.688 1972.557,2684.688C2009.211,2684.688 2037.97,2657.494 2037.97,2622.532C2037.97,2587.882 2009.211,2560.688 1972.557,2560.688C1935.839,2560.688 1906.892,2587.882 1906.892,2622.782ZM1972.557,2603.359C1982.268,2603.359 1989.975,2611.754 1989.975,2623.22C1989.975,2635.376 1982.707,2643.585 1972.557,2643.585C1962.594,2643.585 1955.326,2634.937 1955.326,2623.22C1955.326,2611.942 1962.594,2603.359 1972.557,2603.359" style="fill:rgb(5,6,8);fill-rule:nonzero;"/>
    </g>
    <g transform="matrix(0.595084,0,0,0.595084,-251.050778,-1141.15298)">
        <path d="M1726.313,2636.066L1745.988,2636.066C1783.519,2636.066 1808.958,2613.258 1808.958,2579.047C1808.958,2546.529 1783.331,2522.844 1748.18,2522.844L1700.436,2522.844C1685.21,2522.844 1674.997,2534.122 1674.997,2550.727L1674.997,2657.683C1674.997,2672.281 1686.275,2683.998 1700.185,2683.998C1714.596,2683.998 1726.313,2672.532 1726.313,2658.121L1726.313,2636.066ZM1725.875,2567.957L1746.426,2567.957C1753.256,2567.957 1758.77,2573.471 1758.77,2579.925C1758.77,2586.754 1753.256,2591.829 1746.426,2591.829L1725.875,2591.829L1725.875,2567.957ZM1863.345,2575.476C1854.322,2566.391 1846.114,2561.315 1840.35,2561.315C1827.129,2561.315 1816.039,2572.405 1816.039,2585.627L1816.039,2659.688C1816.039,2673.159 1827.129,2683.998 1840.35,2683.998C1854.072,2683.998 1865.1,2672.532 1865.1,2658.121L1864.912,2636.692C1864.912,2623.659 1865.35,2621.215 1869.109,2617.268C1872.869,2613.697 1878.195,2610.627 1886.779,2607.744C1899.373,2603.546 1902.693,2601.792 1906.265,2595.839C1908.019,2592.519 1909.336,2588.321 1909.336,2584.31C1909.336,2571.529 1899.185,2561.754 1886.591,2561.754C1878.195,2561.754 1873.307,2564.636 1863.345,2575.476ZM1906.892,2622.782C1906.892,2657.494 1935.839,2684.688 1972.557,2684.688C2009.211,2684.688 2037.97,2657.494 2037.97,2622.532C2037.97,2587.882 2009.211,2560.688 1972.557,2560.688C1935.839,2560.688 1906.892,2587.882 1906.892,2622.782ZM1972.557,2603.359C1982.268,2603.359 1989.975,2611.754 1989.975,2623.22C1989.975,2635.376 1982.707,2643.585 1972.557,2643.585C1962.594,2643.585 1955.326,2634.937 1955.326,2623.22C1955.326,2611.942 1962.594,2603.359 1972.557,2603.359" style="fill:white;fill-rule:nonzero;"/>
    </g>
    <g transform="matrix(0.595084,0,0,0.595084,-251.050778,-1008.099245)">
        <path d="M1726.313,2636.066L1745.988,2636.066C1783.519,2636.066 1808.958,2613.258 1808.958,2579.047C1808.958,2546.529 1783.331,2522.844 1748.18,2522.844L1700.436,2522.844C1685.21,2522.844 1674.997,2534.122 1674.997,2550.727L1674.997,2657.683C1674.997,2672.281 1686.275,2683.998 1700.185,2683.998C1714.596,2683.998 1726.313,2672.532 1726.313,2658.121L1726.313,2636.066ZM1725.875,2567.957L1746.426,2567.957C1753.256,2567.957 1758.77,2573.471 1758.77,2579.925C1758.77,2586.754 1753.256,2591.829 1746.426,2591.829L1725.875,2591.829L1725.875,2567.957ZM1863.345,2575.476C1854.322,2566.391 1846.114,2561.315 1840.35,2561.315C1827.129,2561.315 1816.039,2572.405 1816.039,2585.627L1816.039,2659.688C1816.039,2673.159 1827.129,2683.998 1840.35,2683.998C1854.072,2683.998 1865.1,2672.532 1865.1,2658.121L1864.912,2636.692C1864.912,2623.659 1865.35,2621.215 1869.109,2617.268C1872.869,2613.697 1878.195,2610.627 1886.779,2607.744C1899.373,2603.546 1902.693,2601.792 1906.265,2595.839C1908.019,2592.519 1909.336,2588.321 1909.336,2584.31C1909.336,2571.529 1899.185,2561.754 1886.591,2561.754C1878.195,2561.754 1873.307,2564.636 1863.345,2575.476ZM1906.892,2622.782C1906.892,2657.494 1935.839,2684.688 1972.557,2684.688C2009.211,2684.688 2037.97,2657.494 2037.97,2622.532C2037.97,2587.882 2009.211,2560.688 1972.557,2560.688C1935.839,2560.688 1906.892,2587.882 1906.892,2622.782ZM1972.557,2603.359C1982.268,2603.359 1989.975,2611.754 1989.975,2623.22C1989.975,2635.376 1982.707,2643.585 1972.557,2643.585C1962.594,2643.585 1955.326,2634.937 1955.326,2623.22C1955.326,2611.942 1962.594,2603.359 1972.557,2603.359" style="fill:rgb(54,190,206);fill-rule:nonzero;"/>
    </g>
    <g transform="matrix(0.595084,0,0,0.595084,-251.050778,-876.460975)">
        <path d="M1726.313,2636.066L1745.988,2636.066C1783.519,2636.066 1808.958,2613.258 1808.958,2579.047C1808.958,2546.529 1783.331,2522.844 1748.18,2522.844L1700.436,2522.844C1685.21,2522.844 1674.997,2534.122 1674.997,2550.727L1674.997,2657.683C1674.997,2672.281 1686.275,2683.998 1700.185,2683.998C1714.596,2683.998 1726.313,2672.532 1726.313,2658.121L1726.313,2636.066ZM1725.875,2567.957L1746.426,2567.957C1753.256,2567.957 1758.77,2573.471 1758.77,2579.925C1758.77,2586.754 1753.256,2591.829 1746.426,2591.829L1725.875,2591.829L1725.875,2567.957ZM1863.345,2575.476C1854.322,2566.391 1846.114,2561.315 1840.35,2561.315C1827.129,2561.315 1816.039,2572.405 1816.039,2585.627L1816.039,2659.688C1816.039,2673.159 1827.129,2683.998 1840.35,2683.998C1854.072,2683.998 1865.1,2672.532 1865.1,2658.121L1864.912,2636.692C1864.912,2623.659 1865.35,2621.215 1869.109,2617.268C1872.869,2613.697 1878.195,2610.627 1886.779,2607.744C1899.373,2603.546 1902.693,2601.792 1906.265,2595.839C1908.019,2592.519 1909.336,2588.321 1909.336,2584.31C1909.336,2571.529 1899.185,2561.754 1886.591,2561.754C1878.195,2561.754 1873.307,2564.636 1863.345,2575.476ZM1906.892,2622.782C1906.892,2657.494 1935.839,2684.688 1972.557,2684.688C2009.211,2684.688 2037.97,2657.494 2037.97,2622.532C2037.97,2587.882 2009.211,2560.688 1972.557,2560.688C1935.839,2560.688 1906.892,2587.882 1906.892,2622.782ZM1972.557,2603.359C1982.268,2603.359 1989.975,2611.754 1989.975,2623.22C1989.975,2635.376 1982.707,2643.585 1972.557,2643.585C1962.594,2643.585 1955.326,2634.937 1955.326,2623.22C1955.326,2611.942 1962.594,2603.359 1972.557,2603.359" style="fill:rgb(5,6,8);fill-rule:nonzero;"/>
    </g>
    <g transform="matrix(0.595084,0,0,0.595084,-251.050778,-725.006191)">
        <path d="M1726.313,2636.066L1745.988,2636.066C1783.519,2636.066 1808.958,2613.258 1808.958,2579.047C1808.958,2546.529 1783.331,2522.844 1748.18,2522.844L1700.436,2522.844C1685.21,2522.844 1674.997,2534.122 1674.997,2550.727L1674.997,2657.683C1674.997,2672.281 1686.275,2683.998 1700.185,2683.998C1714.596,2683.998 1726.313,2672.532 1726.313,2658.121L1726.313,2636.066ZM1725.875,2567.957L1746.426,2567.957C1753.256,2567.957 1758.77,2573.471 1758.77,2579.925C1758.77,2586.754 1753.256,2591.829 1746.426,2591.829L1725.875,2591.829L1725.875,2567.957ZM1863.345,2575.476C1854.322,2566.391 1846.114,2561.315 1840.35,2561.315C1827.129,2561.315 1816.039,2572.405 1816.039,2585.627L1816.039,2659.688C1816.039,2673.159 1827.129,2683.998 1840.35,2683.998C1854.072,2683.998 1865.1,2672.532 1865.1,2658.121L1864.912,2636.692C1864.912,2623.659 1865.35,2621.215 1869.109,2617.268C1872.869,2613.697 1878.195,2610.627 1886.779,2607.744C1899.373,2603.546 1902.693,2601.792 1906.265,2595.839C1908.019,2592.519 1909.336,2588.321 1909.336,2584.31C1909.336,2571.529 1899.185,2561.754 1886.591,2561.754C1878.195,2561.754 1873.307,2564.636 1863.345,2575.476ZM1906.892,2622.782C1906.892,2657.494 1935.839,2684.688 1972.557,2684.688C2009.211,2684.688 2037.97,2657.494 2037.97,2622.532C2037.97,2587.882 2009.211,2560.688 1972.557,2560.688C1935.839,2560.688 1906.892,2587.882 1906.892,2622.782ZM1972.557,2603.359C1982.268,2603.359 1989.975,2611.754 1989.975,2623.22C1989.975,2635.376 1982.707,2643.585 1972.557,2643.585C1962.594,2643.585 1955.326,2634.937 1955.326,2623.22C1955.326,2611.942 1962.594,2603.359 1972.557,2603.359" style="fill:white;fill-rule:nonzero;"/>
    </g>
</svg>
